<svg viewBox="0 0 70 26">
  <title>Figma Logo</title>
  <path d="M0,.5v19.5h2.5s0-9.3,0-9.3h6.1v-2.5H2.5V2.9h7.9V.5H0Z"/>
  <path d="M15,4.5c.9,0,1.6-.7,1.6-1.6s-.7-1.6-1.6-1.6-1.6.7-1.6,1.6.7,1.6,1.6,1.6Z"/>
  <path d="M13.7,6.9v13.1h2.5V6.9h-2.5Z"/>
  <path d="M25.6,6.5c-3.3,0-5.7,2.8-5.7,6.2s2.3,6.2,5.7,6.2,2.8-.6,3.7-1.6v1.7c0,2.2-1.7,4-3.9,4s-1.6-.3-2.2-.7l-1.3,2.2c1,.6,2.2,1,3.5,1,3.6,0,6.5-2.9,6.5-6.4V6.9h-2.5v1.2c-.9-1-2.2-1.6-3.7-1.6ZM22.4,12.7c0-2.1,1.6-3.7,3.4-3.7s3.4,1.6,3.4,3.7-1.6,3.7-3.4,3.7-3.4-1.6-3.4-3.7Z"/>
  <path d="M40.9,9c-1.5,0-2.7,1.3-2.7,2.7v8.3h-2.5V6.9h2.5v1.2c.7-1,1.8-1.6,3.2-1.6s3.1.9,3.9,2.2c.9-1.3,2.3-2.2,4-2.2,2.9,0,4.7,2.3,4.7,5.2,0,0,0,0,0,0h0s0,0,0,0v8.3h-2.5v-8.3c0-1.5-1.2-2.7-2.7-2.7s-2.7,1.3-2.7,2.7v8.3h-2.5v-8.3c0-1.5-1.2-2.7-2.7-2.7Z"/>
  <path d="M67.5,8.4c-1.1-1.2-2.7-1.9-4.4-1.9-3.8,0-6.4,3.2-6.4,6.9s2.7,6.9,6.4,6.9,3.3-.7,4.4-1.9v1.5h2.5V6.9h-2.5v1.5ZM59.1,13.5c0-2.5,1.9-4.5,4.2-4.5s4.2,2,4.2,4.5-1.9,4.5-4.2,4.5-4.2-2-4.2-4.5Z"/>
</svg>