<svg xmlns="http://www.w3.org/2000/svg" xml:space="preserve" style="enable-background:new 0 0 30 30" viewBox="0 0 30 30">
  <ellipse cx="16" cy="22.8" rx="11.9" ry="3.7" style="fill:#c6c6c6"/>
  <path d="M19.4 3.5c-2.5 0-4.9 1-6.3 3.4-.6 1.1-1.4 1.7-2.4 1.4-1.4-.4-2.6-.3-3.6.8-1.2 1.4-.7 2.4-1.8 4.2-1.1 1.8-3.5 4.2-4.2 6-.3.7.3.6.4.3 4.2-6.1 7.1-7.5 9.3-6.9 1.3 1 2.8 1.3 4.3 1.5 1.7.9 3.2 1.2 4.6 1.5 1.4.3 2 3.8 0 4.1-1 0-2 0-2.8.2-.4.1-.5.4 0 .4.2 0 .5-.1.6-.1.3 0 .3.2.1.3-.3.2-.7.3-.9.6-.1.2.1.4.3.3.6-.1 1-.5 1.6-.5.3 0 .6.1.5.3-.3.4-.6.6-.7.9-.1.2.1.4.3.3.8-.7 1.6-1.4 2.4-1.7.2-.1.3-.1.7 0 0-.4-.3-.5-.5-.6.4-2.9 1.2-2.8 1.8-2 .6.9-.2 2.4-.7 3.7-1.1-.1-1.8 0-2.5.4-.2.1-.1.4 0 .4l.9-.1c.3-.1.5.2.2.4-.6.4-1 .5-1.1.9 0 .1 0 .4.2.3.6-.2 1.1-.5 1.4-.6.2-.1.5-.1.3.3s-.2.8-.2 1.2c0 .3.3.3.4.1.5-1.1 1-1.8 2-2.4.4-.2.7-.2 1-.2-.1-.4-.4-.7-.9-.9-.3-2.7.6-4.4 2.3-5.2 1.5-.7 2.2-1.8 2.4-3.6.8-5.5-4.6-9.4-9.4-9.4zM8.6 9.8c.3 0 .5.2.5.5s-.2.5-.5.5-.5-.2-.5-.5.2-.5.5-.5z"/>
</svg>
